<svg xmlns="http://www.w3.org/2000/svg" width="900" height="132" viewBox="0 0 900 132">
  <style>
    text { font-family: ui-monospace, SFMono-Regular, Menlo, Consolas, monospace; }
  </style>

  <rect width="899" height="131" x=".5" y=".5" rx="14" fill="#0d1117" stroke="#30363d"/>

  <circle cx="24" cy="22" r="4" fill="#39d353">
    <animate attributeName="opacity" values="1;.28;1" dur="1.6s" repeatCount="indefinite"/>
  </circle>
  <text x="38" y="26" fill="#8b949e" font-size="12">pedrssa@github:~$ activity --live</text>

  <g transform="translate(32 46)">
    <!-- neutral grid -->
    <g fill="#161b22" stroke="#21262d" stroke-width=".35">
      <rect x="0" y="0" width="13" height="13" rx="2"/><rect x="18" y="0" width="13" height="13" rx="2"/><rect x="36" y="0" width="13" height="13" rx="2"/><rect x="54" y="0" width="13" height="13" rx="2"/><rect x="72" y="0" width="13" height="13" rx="2"/><rect x="90" y="0" width="13" height="13" rx="2"/><rect x="108" y="0" width="13" height="13" rx="2"/><rect x="126" y="0" width="13" height="13" rx="2"/><rect x="144" y="0" width="13" height="13" rx="2"/><rect x="162" y="0" width="13" height="13" rx="2"/><rect x="180" y="0" width="13" height="13" rx="2"/><rect x="198" y="0" width="13" height="13" rx="2"/><rect x="216" y="0" width="13" height="13" rx="2"/><rect x="234" y="0" width="13" height="13" rx="2"/><rect x="252" y="0" width="13" height="13" rx="2"/><rect x="270" y="0" width="13" height="13" rx="2"/><rect x="288" y="0" width="13" height="13" rx="2"/><rect x="306" y="0" width="13" height="13" rx="2"/><rect x="324" y="0" width="13" height="13" rx="2"/><rect x="342" y="0" width="13" height="13" rx="2"/><rect x="360" y="0" width="13" height="13" rx="2"/><rect x="378" y="0" width="13" height="13" rx="2"/><rect x="396" y="0" width="13" height="13" rx="2"/><rect x="414" y="0" width="13" height="13" rx="2"/><rect x="432" y="0" width="13" height="13" rx="2"/><rect x="450" y="0" width="13" height="13" rx="2"/><rect x="468" y="0" width="13" height="13" rx="2"/><rect x="486" y="0" width="13" height="13" rx="2"/><rect x="504" y="0" width="13" height="13" rx="2"/><rect x="522" y="0" width="13" height="13" rx="2"/><rect x="540" y="0" width="13" height="13" rx="2"/><rect x="558" y="0" width="13" height="13" rx="2"/><rect x="576" y="0" width="13" height="13" rx="2"/><rect x="594" y="0" width="13" height="13" rx="2"/><rect x="612" y="0" width="13" height="13" rx="2"/><rect x="630" y="0" width="13" height="13" rx="2"/><rect x="648" y="0" width="13" height="13" rx="2"/><rect x="666" y="0" width="13" height="13" rx="2"/><rect x="684" y="0" width="13" height="13" rx="2"/><rect x="702" y="0" width="13" height="13" rx="2"/><rect x="720" y="0" width="13" height="13" rx="2"/><rect x="738" y="0" width="13" height="13" rx="2"/><rect x="756" y="0" width="13" height="13" rx="2"/><rect x="774" y="0" width="13" height="13" rx="2"/><rect x="792" y="0" width="13" height="13" rx="2"/>
      <rect x="0" y="20" width="13" height="13" rx="2"/><rect x="18" y="20" width="13" height="13" rx="2"/><rect x="36" y="20" width="13" height="13" rx="2"/><rect x="54" y="20" width="13" height="13" rx="2"/><rect x="72" y="20" width="13" height="13" rx="2"/><rect x="90" y="20" width="13" height="13" rx="2"/><rect x="108" y="20" width="13" height="13" rx="2"/><rect x="126" y="20" width="13" height="13" rx="2"/><rect x="144" y="20" width="13" height="13" rx="2"/><rect x="162" y="20" width="13" height="13" rx="2"/><rect x="180" y="20" width="13" height="13" rx="2"/><rect x="198" y="20" width="13" height="13" rx="2"/><rect x="216" y="20" width="13" height="13" rx="2"/><rect x="234" y="20" width="13" height="13" rx="2"/><rect x="252" y="20" width="13" height="13" rx="2"/><rect x="270" y="20" width="13" height="13" rx="2"/><rect x="288" y="20" width="13" height="13" rx="2"/><rect x="306" y="20" width="13" height="13" rx="2"/><rect x="324" y="20" width="13" height="13" rx="2"/><rect x="342" y="20" width="13" height="13" rx="2"/><rect x="360" y="20" width="13" height="13" rx="2"/><rect x="378" y="20" width="13" height="13" rx="2"/><rect x="396" y="20" width="13" height="13" rx="2"/><rect x="414" y="20" width="13" height="13" rx="2"/><rect x="432" y="20" width="13" height="13" rx="2"/><rect x="450" y="20" width="13" height="13" rx="2"/><rect x="468" y="20" width="13" height="13" rx="2"/><rect x="486" y="20" width="13" height="13" rx="2"/><rect x="504" y="20" width="13" height="13" rx="2"/><rect x="522" y="20" width="13" height="13" rx="2"/><rect x="540" y="20" width="13" height="13" rx="2"/><rect x="558" y="20" width="13" height="13" rx="2"/><rect x="576" y="20" width="13" height="13" rx="2"/><rect x="594" y="20" width="13" height="13" rx="2"/><rect x="612" y="20" width="13" height="13" rx="2"/><rect x="630" y="20" width="13" height="13" rx="2"/><rect x="648" y="20" width="13" height="13" rx="2"/><rect x="666" y="20" width="13" height="13" rx="2"/><rect x="684" y="20" width="13" height="13" rx="2"/><rect x="702" y="20" width="13" height="13" rx="2"/><rect x="720" y="20" width="13" height="13" rx="2"/><rect x="738" y="20" width="13" height="13" rx="2"/><rect x="756" y="20" width="13" height="13" rx="2"/><rect x="774" y="20" width="13" height="13" rx="2"/><rect x="792" y="20" width="13" height="13" rx="2"/>
      <rect x="0" y="40" width="13" height="13" rx="2"/><rect x="18" y="40" width="13" height="13" rx="2"/><rect x="36" y="40" width="13" height="13" rx="2"/><rect x="54" y="40" width="13" height="13" rx="2"/><rect x="72" y="40" width="13" height="13" rx="2"/><rect x="90" y="40" width="13" height="13" rx="2"/><rect x="108" y="40" width="13" height="13" rx="2"/><rect x="126" y="40" width="13" height="13" rx="2"/><rect x="144" y="40" width="13" height="13" rx="2"/><rect x="162" y="40" width="13" height="13" rx="2"/><rect x="180" y="40" width="13" height="13" rx="2"/><rect x="198" y="40" width="13" height="13" rx="2"/><rect x="216" y="40" width="13" height="13" rx="2"/><rect x="234" y="40" width="13" height="13" rx="2"/><rect x="252" y="40" width="13" height="13" rx="2"/><rect x="270" y="40" width="13" height="13" rx="2"/><rect x="288" y="40" width="13" height="13" rx="2"/><rect x="306" y="40" width="13" height="13" rx="2"/><rect x="324" y="40" width="13" height="13" rx="2"/><rect x="342" y="40" width="13" height="13" rx="2"/><rect x="360" y="40" width="13" height="13" rx="2"/><rect x="378" y="40" width="13" height="13" rx="2"/><rect x="396" y="40" width="13" height="13" rx="2"/><rect x="414" y="40" width="13" height="13" rx="2"/><rect x="432" y="40" width="13" height="13" rx="2"/><rect x="450" y="40" width="13" height="13" rx="2"/><rect x="468" y="40" width="13" height="13" rx="2"/><rect x="486" y="40" width="13" height="13" rx="2"/><rect x="504" y="40" width="13" height="13" rx="2"/><rect x="522" y="40" width="13" height="13" rx="2"/><rect x="540" y="40" width="13" height="13" rx="2"/><rect x="558" y="40" width="13" height="13" rx="2"/><rect x="576" y="40" width="13" height="13" rx="2"/><rect x="594" y="40" width="13" height="13" rx="2"/><rect x="612" y="40" width="13" height="13" rx="2"/><rect x="630" y="40" width="13" height="13" rx="2"/><rect x="648" y="40" width="13" height="13" rx="2"/><rect x="666" y="40" width="13" height="13" rx="2"/><rect x="684" y="40" width="13" height="13" rx="2"/><rect x="702" y="40" width="13" height="13" rx="2"/><rect x="720" y="40" width="13" height="13" rx="2"/><rect x="738" y="40" width="13" height="13" rx="2"/><rect x="756" y="40" width="13" height="13" rx="2"/><rect x="774" y="40" width="13" height="13" rx="2"/><rect x="792" y="40" width="13" height="13" rx="2"/>
    </g>

    <!-- animated accents; decorative terminal activity, not contribution counts -->
    <g stroke="#238636" stroke-width=".5">
      <rect x="108" y="20" width="13" height="13" rx="2" fill="#0e4429"><animate attributeName="fill" values="#0e4429;#26a641;#0e4429" dur="4.8s" begin=".2s" repeatCount="indefinite"/></rect>
      <rect x="234" y="0" width="13" height="13" rx="2" fill="#006d32"><animate attributeName="fill" values="#006d32;#39d353;#006d32" dur="5.4s" begin="1.1s" repeatCount="indefinite"/></rect>
      <rect x="342" y="40" width="13" height="13" rx="2" fill="#0e4429"><animate attributeName="fill" values="#0e4429;#26a641;#0e4429" dur="5.8s" begin="2.4s" repeatCount="indefinite"/></rect>
      <rect x="468" y="20" width="13" height="13" rx="2" fill="#26a641"><animate attributeName="fill" values="#26a641;#7dff9b;#26a641" dur="6.2s" begin=".8s" repeatCount="indefinite"/></rect>
      <rect x="576" y="0" width="13" height="13" rx="2" fill="#006d32"><animate attributeName="fill" values="#006d32;#39d353;#006d32" dur="5.1s" begin="3.1s" repeatCount="indefinite"/></rect>
      <rect x="684" y="40" width="13" height="13" rx="2" fill="#0e4429"><animate attributeName="fill" values="#0e4429;#26a641;#0e4429" dur="5.7s" begin="1.9s" repeatCount="indefinite"/></rect>
      <rect x="756" y="20" width="13" height="13" rx="2" fill="#26a641"><animate attributeName="fill" values="#26a641;#7dff9b;#26a641" dur="4.9s" begin="2.7s" repeatCount="indefinite"/></rect>
    </g>
  </g>

  <text x="32" y="119" fill="#8b949e" font-size="10">subtle terminal pulse · live</text>
</svg>